<svg width="26" height="27" viewBox="0 0 26 27" fill="none" stroke-width="1" xmlns="http://www.w3.org/2000/svg">
<path d="M9.40089 20.1685C11.1307 20.3733 12.8741 20.4405 14.6145 20.3692M9.40089 20.1685C6.87338 19.8693 4.38999 19.2729 2.00223 18.3917C3.87468 16.3189 4.97626 13.6646 5.12174 10.875M9.40089 20.1685C9.06002 21.1843 9.13363 22.2936 9.60572 23.2556C10.0778 24.2175 10.9103 24.9544 11.9224 25.3062C12.9345 25.658 14.0446 25.5964 15.0115 25.1348C15.9785 24.6731 16.7243 23.8486 17.0871 22.8404M19.7522 19.7521L25.4826 25.4825M19.7522 19.7521C21.3835 19.4229 22.987 18.9681 24.5481 18.3917C22.5264 16.1522 21.4093 13.2411 21.4137 10.224V9.20678C21.4151 7.34503 20.7781 5.53909 19.6089 4.09024C18.4397 2.64139 16.8091 1.63724 14.989 1.24531C13.169 0.853373 11.2696 1.09735 9.60771 1.93655C7.94581 2.77574 6.62191 4.1594 5.85686 5.8567M19.7522 19.7521L5.85686 5.8567M5.85686 5.8567L1.06909 1.06893" stroke="white" stroke-linecap="round" stroke-linejoin="round"/>
</svg>
