<svg width="28" height="26" viewBox="0 0 28 26" fill="none" xmlns="http://www.w3.org/2000/svg">
<path d="M25.4653 8.54353C26.6643 8.92872 27.4998 10.0734 27.4998 11.3877V17.2008C27.4998 18.7416 26.351 20.0491 24.8143 20.1752C24.3531 20.2118 23.892 20.2458 23.4308 20.2729V24.4652L19.3619 20.3963C17.5255 20.3963 15.708 20.3217 13.9096 20.1752C13.518 20.1436 13.1372 20.0319 12.7906 19.847M25.4653 8.54353C25.2557 8.47607 25.0391 8.43284 24.8197 8.41468C21.1874 8.11314 17.5364 8.11314 13.9041 8.41468C12.3702 8.54217 11.2241 9.8483 11.2241 11.3877V17.2008C11.2241 18.3361 11.848 19.3438 12.7906 19.847M25.4653 8.54353V6.0018C25.4653 3.80323 23.9028 1.89761 21.7219 1.61415C18.9155 1.25037 16.0885 1.06825 13.2585 1.06891C10.3899 1.06891 7.56475 1.25472 4.79517 1.61415C2.61423 1.89761 1.05176 3.80323 1.05176 6.0018V14.4462C1.05176 16.6448 2.61423 18.5504 4.79517 18.8338C5.57776 18.9356 6.36442 19.0237 7.15515 19.097V25.4825L12.7906 19.847" stroke="white" stroke-linecap="round" stroke-linejoin="round"/>
</svg>
