<svg width="31" height="22" viewBox="0 0 31 22" fill="none" xmlns="http://www.w3.org/2000/svg">
<path d="M22.3965 8.24124H18.3276C18.1927 8.24124 18.0633 8.18766 17.9679 8.09227C17.8725 7.99689 17.8189 7.86752 17.8189 7.73263C17.8189 7.59774 17.8725 7.46837 17.9679 7.37298C18.0633 7.2776 18.1927 7.22401 18.3276 7.22401H22.3965C22.5314 7.22401 22.6607 7.2776 22.7561 7.37298C22.8515 7.46837 22.9051 7.59774 22.9051 7.73263C22.9051 7.86752 22.8515 7.99689 22.7561 8.09227C22.6607 8.18766 22.5314 8.24124 22.3965 8.24124ZM12.2242 7.22401H10.6983V5.69817C10.6983 5.56327 10.6447 5.4339 10.5494 5.33852C10.454 5.24314 10.3246 5.18955 10.1897 5.18955C10.0548 5.18955 9.92545 5.24314 9.83006 5.33852C9.73468 5.4339 9.68109 5.56327 9.68109 5.69817V7.22401H8.15525C8.02035 7.22401 7.89099 7.2776 7.7956 7.37298C7.70022 7.46837 7.64663 7.59774 7.64663 7.73263C7.64663 7.86752 7.70022 7.99689 7.7956 8.09227C7.89099 8.18766 8.02035 8.24124 8.15525 8.24124H9.68109V9.76709C9.68109 9.90198 9.73468 10.0314 9.83006 10.1267C9.92545 10.2221 10.0548 10.2757 10.1897 10.2757C10.3246 10.2757 10.454 10.2221 10.5494 10.1267C10.6447 10.0314 10.6983 9.90198 10.6983 9.76709V8.24124H12.2242C12.3591 8.24124 12.4884 8.18766 12.5838 8.09227C12.6792 7.99689 12.7328 7.86752 12.7328 7.73263C12.7328 7.59774 12.6792 7.46837 12.5838 7.37298C12.4884 7.2776 12.3591 7.22401 12.2242 7.22401ZM26.664 21.9115C26.0198 22.0248 25.3579 21.9814 24.7341 21.7848C24.1103 21.5882 23.5431 21.2442 23.0803 20.782C23.0696 20.7712 23.0595 20.7602 23.0498 20.7488L17.7206 14.8328L12.8372 14.8524L7.50234 20.7496C7.49297 20.7608 7.48305 20.7716 7.4726 20.782C6.86063 21.3938 6.06956 21.7946 5.2143 21.9261C4.35904 22.0576 3.48412 21.9131 2.7166 21.5135C1.94908 21.1139 1.32894 20.48 0.946229 19.7039C0.563521 18.9278 0.43818 18.0499 0.588409 17.1978L2.66447 6.52007C2.66553 6.51225 2.66671 6.50443 2.66807 6.4966C2.95574 4.84629 3.8173 3.35071 5.10062 2.27397C6.38394 1.19723 8.00646 0.608593 9.68165 0.61201L20.8715 0.578979H20.8729C22.5425 0.581321 24.1583 1.16941 25.4388 2.24077C26.7192 3.31213 27.5832 4.79883 27.8801 6.44178C27.881 6.44619 27.883 6.45016 27.8839 6.45463L29.963 17.1893C30.1511 18.2529 29.9093 19.3477 29.2907 20.2332C28.6722 21.1186 27.7274 21.7223 26.664 21.9115ZM20.8709 13.803C22.4896 13.8034 24.0422 13.1608 25.1871 12.0165C26.3321 10.8722 26.9755 9.31999 26.976 7.70127C26.9764 6.08256 26.3338 4.52996 25.1895 3.38504C24.0452 2.24012 22.493 1.59666 20.8742 1.59621L9.68314 1.62924C8.25267 1.62592 6.86669 2.12628 5.76822 3.04259C4.66975 3.95889 3.92892 5.23265 3.67561 6.64052C3.67412 6.65418 3.67201 6.66784 3.66934 6.68162L1.58856 17.3832C1.47816 18.0204 1.57306 18.6763 1.85957 19.2561C2.14608 19.836 2.60939 20.3098 3.18264 20.6092C3.7559 20.9087 4.40947 21.0183 5.04905 20.9222C5.68863 20.8262 6.28117 20.5294 6.74115 20.0748L12.2334 14.0034C12.2809 13.951 12.3388 13.909 12.4033 13.8802C12.4679 13.8514 12.5378 13.8363 12.6086 13.836L20.8709 13.803ZM28.9627 17.3743L27.5619 10.1421C27.0596 11.5126 26.1489 12.696 24.9527 13.5325C23.7566 14.3691 22.3326 14.8186 20.8729 14.8202L19.0847 14.8274L23.8119 20.075C24.2725 20.5301 24.8659 20.827 25.5063 20.9226C26.1467 21.0183 26.8009 20.9078 27.3743 20.6071C27.9478 20.3064 28.4107 19.8312 28.6963 19.25C28.9818 18.6689 29.0751 18.012 28.9627 17.3743Z" fill="white"/>
</svg>
