<svg width="24" height="26" viewBox="0 0 24 26" fill="none" xmlns="http://www.w3.org/2000/svg">
<path d="M9.18961 9.20676V4.1206C9.18961 3.31124 9.51113 2.53503 10.0834 1.96273C10.6557 1.39043 11.4319 1.06891 12.2413 1.06891H20.3792C21.1885 1.06891 21.9647 1.39043 22.537 1.96273C23.1093 2.53503 23.4308 3.31124 23.4308 4.1206V22.4308C23.4308 23.2401 23.1093 24.0163 22.537 24.5886C21.9647 25.1609 21.1885 25.4825 20.3792 25.4825H12.2413C11.4319 25.4825 10.6557 25.1609 10.0834 24.5886C9.51113 24.0163 9.18961 23.2401 9.18961 22.4308V17.3446M5.12068 17.3446L1.05176 13.2757M1.05176 13.2757L5.12068 9.20676M1.05176 13.2757H18.3447" stroke="white" stroke-linecap="round" stroke-linejoin="round"/>
</svg>
