<svg width="25" height="26" viewBox="0 0 25 26" fill="none" xmlns="http://www.w3.org/2000/svg">
<path d="M9.01248 2.34384C9.13454 1.60872 9.77201 1.06891 10.518 1.06891H14.0349C14.7809 1.06891 15.4183 1.60872 15.5404 2.34384L15.8293 4.08127C15.9147 4.58853 16.2538 5.0117 16.7041 5.26126C16.8045 5.31551 16.9035 5.37383 17.0025 5.43351C17.4433 5.69935 17.979 5.78208 18.4605 5.60169L20.1111 4.98322C20.4494 4.856 20.8218 4.85298 21.1621 4.97469C21.5024 5.09639 21.7884 5.33493 21.9693 5.64781L23.7271 8.69543C23.9075 9.00834 23.9711 9.37512 23.9066 9.73052C23.842 10.0859 23.6534 10.4069 23.3744 10.6363L22.014 11.758C21.6167 12.0848 21.42 12.5894 21.4308 13.1034C21.4327 13.2187 21.4327 13.334 21.4308 13.4493C21.42 13.962 21.6167 14.4665 22.014 14.7934L23.3758 15.9151C23.9509 16.3898 24.1001 17.2103 23.7284 17.8546L21.9679 20.9022C21.7873 21.215 21.5016 21.4536 21.1616 21.5756C20.8216 21.6975 20.4494 21.6949 20.1111 21.5682L18.4605 20.9497C17.979 20.7693 17.4433 20.852 17.0011 21.1179C16.9028 21.1777 16.8033 21.2356 16.7027 21.2915C16.2538 21.5397 15.9147 21.9628 15.8293 22.4701L15.5404 24.2075C15.4183 24.944 14.7809 25.4825 14.0349 25.4825H10.5166C9.77065 25.4825 9.13454 24.9426 9.01112 24.2075L8.72223 22.4701C8.63813 21.9628 8.29906 21.5397 7.84876 21.2901C7.74819 21.2346 7.64871 21.1772 7.55037 21.1179C7.10957 20.852 6.57383 20.7693 6.09099 20.9497L4.44036 21.5682C4.10227 21.695 3.73015 21.6978 3.39017 21.5761C3.05019 21.4545 2.76438 21.2161 2.58357 20.9036L0.824441 17.8559C0.643975 17.543 0.58037 17.1762 0.644943 16.8209C0.709516 16.4655 0.898079 16.1445 1.17708 15.9151L2.53882 14.7934C2.93486 14.4679 3.13152 13.962 3.12203 13.4493C3.11991 13.334 3.11991 13.2187 3.12203 13.1034C3.13152 12.588 2.93486 12.0848 2.53882 11.758L1.17708 10.6363C0.898414 10.4069 0.71007 10.0862 0.645507 9.73114C0.580944 9.37604 0.644343 9.00956 0.824441 8.69679L2.58357 5.64916C2.76422 5.33604 3.05016 5.09722 3.39046 4.97526C3.73076 4.8533 4.1033 4.85612 4.44172 4.98322L6.09099 5.60169C6.57383 5.78208 7.10957 5.69935 7.55037 5.43351C7.64803 5.37383 7.7484 5.31687 7.84876 5.2599C8.29906 5.0117 8.63813 4.58853 8.72223 4.08127L9.01248 2.34384Z" stroke="white" stroke-linecap="round" stroke-linejoin="round"/>
<path d="M16.3446 13.2757C16.3446 14.3549 15.9159 15.3898 15.1529 16.1529C14.3898 16.9159 13.3549 17.3446 12.2757 17.3446C11.1966 17.3446 10.1616 16.9159 9.39855 16.1529C8.63548 15.3898 8.20679 14.3549 8.20679 13.2757C8.20679 12.1966 8.63548 11.1616 9.39855 10.3985C10.1616 9.63548 11.1966 9.20679 12.2757 9.20679C13.3549 9.20679 14.3898 9.63548 15.1529 10.3985C15.9159 11.1616 16.3446 12.1966 16.3446 13.2757Z" stroke="white" stroke-linecap="round" stroke-linejoin="round"/>
</svg>
