<?xml version="1.0" encoding="iso-8859-1"?>
<!-- Uploaded to: SVG Repo, www.svgrepo.com, Generator: SVG Repo Mixer Tools -->
<svg height="800px" width="800px" version="1.1" id="Layer_1" xmlns="http://www.w3.org/2000/svg" xmlns:xlink="http://www.w3.org/1999/xlink" 
	 viewBox="0 0 512.003 512.003" xml:space="preserve">
<g>
	<path style="fill:#9BC9FF;" d="M418.343,198.082c-7.51-3.578-15.332-6.595-23.415-9.008c-7.589-2.268-15.41-3.998-23.415-5.147
		c-7.65-1.097-15.465-1.681-23.415-1.681c-3.364,0-6.706,0.101-10.02,0.303c-3.316,0.201-6.603,0.501-9.862,0.898
		c-4.889,0.595-9.711,1.405-14.458,2.421c-39.558,8.473-73.861,31.276-97.216,62.678c-3.757,5.051-7.235,10.323-10.404,15.794
		c-1.057,1.823-2.078,3.67-3.064,5.538c-1.051,1.989-2.071,3.993-3.041,6.027c-1.261,2.647-2.449,5.335-3.565,8.061
		s-2.16,5.485-3.136,8.279c-0.815,2.338-1.597,4.691-2.309,7.074c-2.267,7.589-3.996,15.413-5.147,23.415
		c-1.099,7.65-1.68,15.468-1.68,23.415c0,9.575,0.829,18.96,2.415,28.087c1.586,9.127,3.929,18,6.96,26.548
		c1.438,4.057,3.03,8.042,4.769,11.948c1.739,3.906,3.628,7.73,5.659,11.467c2.246,4.129,4.666,8.151,7.248,12.057
		c2.582,3.906,5.326,7.694,8.222,11.358c30.043,38.007,76.535,62.439,128.631,62.439c90.376,0,163.902-73.527,163.902-163.902
		C512.002,280.895,473.669,224.433,418.343,198.082z"/>
	<path style="fill:#9BC9FF;" d="M418.343,198.082c-7.51-3.578-15.332-6.595-23.415-9.008c-7.589-2.268-15.41-3.998-23.415-5.147
		c-7.65-1.097-15.465-1.681-23.415-1.681c-53.83,0-101.66,26.106-131.556,66.299c-5.011,6.736-9.522,13.86-13.468,21.332
		c-1.051,1.989-2.071,3.993-3.041,6.027c-2.523,5.296-4.75,10.754-6.701,16.34c-0.815,2.338-1.597,4.691-2.309,7.074
		c-2.267,7.589-3.996,15.413-5.147,23.415c-1.099,7.65-1.68,15.468-1.68,23.415c0,19.15,3.312,37.537,9.375,54.634
		c2.877,8.114,6.366,15.942,10.429,23.415c4.493,8.259,9.676,16.087,15.468,23.415c30.043,38.007,76.535,62.439,128.631,62.439
		c90.376,0,163.902-73.527,163.902-163.902C512.002,280.895,473.669,224.433,418.343,198.082z M397.768,362.706
		c9.144,9.143,9.144,23.967,0,33.111c-4.574,4.572-10.568,6.86-16.556,6.86c-5.994,0-11.984-2.288-16.556-6.862l-16.557-16.553
		l-16.556,16.553c-4.572,4.574-10.566,6.862-16.554,6.862c-5.994,0-11.987-2.288-16.557-6.861c-9.144-9.144-9.144-23.967,0-33.111
		l16.557-16.559l-16.557-16.556c-9.144-9.143-9.144-23.969,0-33.113s23.97-9.146,33.113,0l16.554,16.554l16.556-16.554
		c9.143-9.144,23.967-9.146,33.113,0c9.144,9.143,9.144,23.969,0,33.113l-16.556,16.556L397.768,362.706z"/>
</g>
<path style="fill:#EFC27B;" d="M179.514,1.952c-54.011,0-97.951,43.941-97.951,97.953c0,54.01,43.94,97.95,97.951,97.95
	c54.013,0,97.954-43.94,97.954-97.95C277.468,45.893,233.527,1.952,179.514,1.952z"/>
<path style="fill:#A4E276;" d="M23.416,447.611h196.052c-5.791-7.327-10.975-15.157-15.468-23.415
	c-4.062-7.472-7.552-15.301-10.429-23.415c-6.063-17.097-9.375-35.484-9.375-54.634c0-7.947,0.581-15.764,1.68-23.415
	c1.15-8.002,2.88-15.825,5.147-23.415c0.712-2.384,1.494-4.738,2.309-7.074c1.951-5.587,4.179-11.044,6.701-16.34
	c0.969-2.036,1.99-4.038,3.041-6.027c3.946-7.471,8.457-14.597,13.468-21.332c-12.129-2.544-24.518-3.86-37.029-3.86
	C80.529,244.684,0,325.213,0,424.196C0.002,437.127,10.485,447.611,23.416,447.611z"/>
<path style="fill:#1A6FB0;" d="M381.212,346.147l16.556-16.556c9.144-9.143,9.144-23.969,0-33.113
	c-9.144-9.146-23.969-9.144-33.113,0l-16.556,16.554l-16.556-16.554c-9.141-9.146-23.967-9.144-33.113,0
	c-9.144,9.143-9.144,23.969,0,33.113l16.557,16.556l-16.557,16.559c-9.144,9.143-9.144,23.967,0,33.111
	c4.572,4.572,10.565,6.86,16.557,6.86c5.989,0,11.984-2.288,16.554-6.862l16.557-16.553l16.556,16.553
	c4.574,4.574,10.563,6.862,16.556,6.862c5.989,0,11.984-2.288,16.556-6.861c9.144-9.144,9.144-23.967,0-33.111L381.212,346.147z"/>
<path style="fill:#57A4FF;" d="M200.033,275.903c-2.523,5.296-4.75,10.754-6.701,16.34c-0.815,2.337-1.597,4.691-2.309,7.074
	c-2.267,7.589-3.996,15.413-5.147,23.415c-1.099,7.65-1.68,15.468-1.68,23.415c0,19.15,3.312,37.537,9.375,54.634
	c2.877,8.114,6.366,15.942,10.429,23.415c4.492,8.258,9.676,16.087,15.468,23.415c30.043,38.007,76.535,62.439,128.631,62.439
	V379.263l-16.556,16.554c-4.572,4.574-10.566,6.862-16.554,6.862c-5.994,0-11.987-2.288-16.557-6.86
	c-9.144-9.144-9.144-23.967,0-33.111l16.557-16.559l-16.557-16.556c-9.144-9.143-9.144-23.969,0-33.113s23.97-9.146,33.113,0
	l16.554,16.553V182.245c-53.83,0-101.66,26.106-131.556,66.299c-5.011,6.736-9.522,13.86-13.468,21.332
	C202.025,271.865,201.004,273.868,200.033,275.903z"/>
<path style="fill:#ECB45C;" d="M81.563,99.905c0,54.01,43.94,97.95,97.951,97.95h0.002V1.952h-0.002
	C125.502,1.952,81.563,45.893,81.563,99.905z"/>
<path style="fill:#64C37D;" d="M0.002,424.196c0,12.931,10.484,23.415,23.415,23.415h156.099V244.684h-0.002
	C80.531,244.684,0.002,325.213,0.002,424.196z"/>
</svg>